{"asset":{"version":"2.0","generator":"Blockbench 4.9.2 glTF exporter"},"scenes":[{"nodes":[20],"name":"blockbench_export"}],"scene":0,"nodes":[{"name":"tile0_c","mesh":0},{"name":"tile1_c","mesh":1},{"name":"tile2_c","mesh":2},{"name":"tile3_c","mesh":3},{"name":"tile4_c","mesh":4},{"name":"tile5_c","mesh":5},{"name":"tile01_c","mesh":6},{"name":"tile02_c","mesh":7},{"name":"tile03_c","mesh":8},{"name":"tile04_c","mesh":9},{"name":"tile05_c","mesh":10},{"name":"tile06_c","mesh":11},{"name":"tile07_c","mesh":12},{"name":"tile08_c","mesh":13},{"name":"tile09_c","mesh":14},{"name":"tile10_c","mesh":15},{"name":"tile9_c","mesh":16},{"name":"tile8_c","mesh":17},{"name":"tile7_c","mesh":18},{"name":"tile6_c","mesh":19},{"children":[0,1,2,3,4,5,6,7,8,9,10,11,12,13,14,15,16,17,18,19]}],"bufferViews":[{"buffer":0,"byteOffset":0,"byteLength":48,"target":34962,"byteStride":12},{"buffer":0,"byteOffset":48,"byteLength":48,"target":34962,"byteStride":12},{"buffer":0,"byteOffset":96,"byteLength":32,"target":34962,"byteStride":8},{"buffer":0,"byteOffset":128,"byteLength":12,"target":34963},{"buffer":0,"byteOffset":140,"byteLength":96,"target":34962,"byteStride":12},{"buffer":0,"byteOffset":236,"byteLength":96,"target":34962,"byteStride":12},{"buffer":0,"byteOffset":332,"byteLength":64,"target":34962,"byteStride":8},{"buffer":0,"byteOffset":396,"byteLength":24,"target":34963},{"buffer":0,"byteOffset":420,"byteLength":144,"target":34962,"byteStride":12},{"buffer":0,"byteOffset":564,"byteLength":144,"target":34962,"byteStride":12},{"buffer":0,"byteOffset":708,"byteLength":96,"target":34962,"byteStride":8},{"buffer":0,"byteOffset":804,"byteLength":36,"target":34963},{"buffer":0,"byteOffset":840,"byteLength":48,"target":34962,"byteStride":12},{"buffer":0,"byteOffset":888,"byteLength":48,"target":34962,"byteStride":12},{"buffer":0,"byteOffset":936,"byteLength":32,"target":34962,"byteStride":8},{"buffer":0,"byteOffset":968,"byteLength":12,"target":34963},{"buffer":0,"byteOffset":980,"byteLength":144,"target":34962,"byteStride":12},{"buffer":0,"byteOffset":1124,"byteLength":144,"target":34962,"byteStride":12},{"buffer":0,"byteOffset":1268,"byteLength":96,"target":34962,"byteStride":8},{"buffer":0,"byteOffset":1364,"byteLength":36,"target":34963},{"buffer":0,"byteOffset":1400,"byteLength":192,"target":34962,"byteStride":12},{"buffer":0,"byteOffset":1592,"byteLength":192,"target":34962,"byteStride":12},{"buffer":0,"byteOffset":1784,"byteLength":128,"target":34962,"byteStride":8},{"buffer":0,"byteOffset":1912,"byteLength":48,"target":34963},{"buffer":0,"byteOffset":1960,"byteLength":48,"target":34962,"byteStride":12},{"buffer":0,"byteOffset":2008,"byteLength":48,"target":34962,"byteStride":12},{"buffer":0,"byteOffset":2056,"byteLength":32,"target":34962,"byteStride":8},{"buffer":0,"byteOffset":2088,"byteLength":12,"target":34963},{"buffer":0,"byteOffset":2100,"byteLength":48,"target":34962,"byteStride":12},{"buffer":0,"byteOffset":2148,"byteLength":48,"target":34962,"byteStride":12},{"buffer":0,"byteOffset":2196,"byteLength":32,"target":34962,"byteStride":8},{"buffer":0,"byteOffset":2228,"byteLength":12,"target":34963},{"buffer":0,"byteOffset":2240,"byteLength":48,"target":34962,"byteStride":12},{"buffer":0,"byteOffset":2288,"byteLength":48,"target":34962,"byteStride":12},{"buffer":0,"byteOffset":2336,"byteLength":32,"target":34962,"byteStride":8},{"buffer":0,"byteOffset":2368,"byteLength":12,"target":34963},{"buffer":0,"byteOffset":2380,"byteLength":48,"target":34962,"byteStride":12},{"buffer":0,"byteOffset":2428,"byteLength":48,"target":34962,"byteStride":12},{"buffer":0,"byteOffset":2476,"byteLength":32,"target":34962,"byteStride":8},{"buffer":0,"byteOffset":2508,"byteLength":12,"target":34963},{"buffer":0,"byteOffset":2520,"byteLength":48,"target":34962,"byteStride":12},{"buffer":0,"byteOffset":2568,"byteLength":48,"target":34962,"byteStride":12},{"buffer":0,"byteOffset":2616,"byteLength":32,"target":34962,"byteStride":8},{"buffer":0,"byteOffset":2648,"byteLength":12,"target":34963},{"buffer":0,"byteOffset":2660,"byteLength":48,"target":34962,"byteStride":12},{"buffer":0,"byteOffset":2708,"byteLength":48,"target":34962,"byteStride":12},{"buffer":0,"byteOffset":2756,"byteLength":32,"target":34962,"byteStride":8},{"buffer":0,"byteOffset":2788,"byteLength":12,"target":34963},{"buffer":0,"byteOffset":2800,"byteLength":48,"target":34962,"byteStride":12},{"buffer":0,"byteOffset":2848,"byteLength":48,"target":34962,"byteStride":12},{"buffer":0,"byteOffset":2896,"byteLength":32,"target":34962,"byteStride":8},{"buffer":0,"byteOffset":2928,"byteLength":12,"target":34963},{"buffer":0,"byteOffset":2940,"byteLength":48,"target":34962,"byteStride":12},{"buffer":0,"byteOffset":2988,"byteLength":48,"target":34962,"byteStride":12},{"buffer":0,"byteOffset":3036,"byteLength":32,"target":34962,"byteStride":8},{"buffer":0,"byteOffset":3068,"byteLength":12,"target":34963},{"buffer":0,"byteOffset":3080,"byteLength":48,"target":34962,"byteStride":12},{"buffer":0,"byteOffset":3128,"byteLength":48,"target":34962,"byteStride":12},{"buffer":0,"byteOffset":3176,"byteLength":32,"target":34962,"byteStride":8},{"buffer":0,"byteOffset":3208,"byteLength":12,"target":34963},{"buffer":0,"byteOffset":3220,"byteLength":48,"target":34962,"byteStride":12},{"buffer":0,"byteOffset":3268,"byteLength":48,"target":34962,"byteStride":12},{"buffer":0,"byteOffset":3316,"byteLength":32,"target":34962,"byteStride":8},{"buffer":0,"byteOffset":3348,"byteLength":12,"target":34963},{"buffer":0,"byteOffset":3360,"byteLength":240,"target":34962,"byteStride":12},{"buffer":0,"byteOffset":3600,"byteLength":240,"target":34962,"byteStride":12},{"buffer":0,"byteOffset":3840,"byteLength":160,"target":34962,"byteStride":8},{"buffer":0,"byteOffset":4000,"byteLength":60,"target":34963},{"buffer":0,"byteOffset":4060,"byteLength":192,"target":34962,"byteStride":12},{"buffer":0,"byteOffset":4252,"byteLength":192,"target":34962,"byteStride":12},{"buffer":0,"byteOffset":4444,"byteLength":128,"target":34962,"byteStride":8},{"buffer":0,"byteOffset":4572,"byteLength":48,"target":34963},{"buffer":0,"byteOffset":4620,"byteLength":192,"target":34962,"byteStride":12},{"buffer":0,"byteOffset":4812,"byteLength":192,"target":34962,"byteStride":12},{"buffer":0,"byteOffset":5004,"byteLength":128,"target":34962,"byteStride":8},{"buffer":0,"byteOffset":5132,"byteLength":48,"target":34963},{"buffer":0,"byteOffset":5180,"byteLength":144,"target":34962,"byteStride":12},{"buffer":0,"byteOffset":5324,"byteLength":144,"target":34962,"byteStride":12},{"buffer":0,"byteOffset":5468,"byteLength":96,"target":34962,"byteStride":8},{"buffer":0,"byteOffset":5564,"byteLength":36,"target":34963}],"buffers":[{"byteLength":5600,"uri":"data:application/octet-stream;base64,"}],"accessors":[{"bufferView":0,"componentType":5126,"count":4,"max":[0.03125,0.125,0.03125],"min":[-0.03125,0,-0.03125],"type":"VEC3"},{"bufferView":1,"componentType":5126,"count":4,"max":[0.8944271802902222,0.4472135901451111,0],"min":[0.8944271802902222,0.4472135901451111,0],"type":"VEC3"},{"bufferView":2,"componentType":5126,"count":4,"max":[0.015625,0.015625],"min":[0,0],"type":"VEC2"},{"bufferView":3,"componentType":5123,"count":6,"max":[3],"min":[0],"type":"SCALAR"},{"bufferView":4,"componentType":5126,"count":8,"max":[-0.09375,0.125,0.03125],"min":[-0.15625,0,-0.03125],"type":"VEC3"},{"bufferView":5,"componentType":5126,"count":8,"max":[1,1,0],"min":[0,0,0],"type":"VEC3"},{"bufferView":6,"componentType":5126,"count":8,"max":[0.015625,0.015625],"min":[0,0],"type":"VEC2"},{"bufferView":7,"componentType":5123,"count":12,"max":[7],"min":[0],"type":"SCALAR"},{"bufferView":8,"componentType":5126,"count":12,"max":[-0.21875,0.125,0.03125],"min":[-0.28125,0,-0.03125],"type":"VEC3"},{"bufferView":9,"componentType":5126,"count":12,"max":[1,1,1],"min":[0,0,0],"type":"VEC3"},{"bufferView":10,"componentType":5126,"count":12,"max":[0.015625,0.015625],"min":[0,0],"type":"VEC2"},{"bufferView":11,"componentType":5123,"count":18,"max":[11],"min":[0],"type":"SCALAR"},{"bufferView":12,"componentType":5126,"count":4,"max":[0.03125,0.125,0.15625],"min":[-0.03125,0.125,0.09375],"type":"VEC3"},{"bufferView":13,"componentType":5126,"count":4,"max":[0,1,0],"min":[0,1,0],"type":"VEC3"},{"bufferView":14,"componentType":5126,"count":4,"max":[0.015625,0.015625],"min":[0,0],"type":"VEC2"},{"bufferView":15,"componentType":5123,"count":6,"max":[3],"min":[0],"type":"SCALAR"},{"bufferView":16,"componentType":5126,"count":12,"max":[-0.09375,0.125,0.15625],"min":[-0.15625,0,0.09375],"type":"VEC3"},{"bufferView":17,"componentType":5126,"count":12,"max":[1,1,0],"min":[-1,0,0],"type":"VEC3"},{"bufferView":18,"componentType":5126,"count":12,"max":[0.03125,0.015625],"min":[0,0],"type":"VEC2"},{"bufferView":19,"componentType":5123,"count":18,"max":[11],"min":[0],"type":"SCALAR"},{"bufferView":20,"componentType":5126,"count":16,"max":[-0.21875,0.125,0.15625],"min":[-0.28125,0,0.09375],"type":"VEC3"},{"bufferView":21,"componentType":5126,"count":16,"max":[1,1,1],"min":[0,0,-1],"type":"VEC3"},{"bufferView":22,"componentType":5126,"count":16,"max":[0.015625,0.015625],"min":[0,0],"type":"VEC2"},{"bufferView":23,"componentType":5123,"count":24,"max":[15],"min":[0],"type":"SCALAR"},{"bufferView":24,"componentType":5126,"count":4,"max":[0.15625,0.125,0.03125],"min":[0.09375,0,-0.03125],"type":"VEC3"},{"bufferView":25,"componentType":5126,"count":4,"max":[0.8944271802902222,0.4472135901451111,0],"min":[0.8944271802902222,0.4472135901451111,0],"type":"VEC3"},{"bufferView":26,"componentType":5126,"count":4,"max":[0.015625,0.015625],"min":[0,0],"type":"VEC2"},{"bufferView":27,"componentType":5123,"count":6,"max":[3],"min":[0],"type":"SCALAR"},{"bufferView":28,"componentType":5126,"count":4,"max":[0.15625,0.125,0.15625],"min":[0.09375,0.0625,0.09375],"type":"VEC3"},{"bufferView":29,"componentType":5126,"count":4,"max":[0.7071067690849304,0.7071067690849304,0],"min":[0.7071067690849304,0.7071067690849304,0],"type":"VEC3"},{"bufferView":30,"componentType":5126,"count":4,"max":[0.015625,0.015625],"min":[0,0],"type":"VEC2"},{"bufferView":31,"componentType":5123,"count":6,"max":[3],"min":[0],"type":"SCALAR"},{"bufferView":32,"componentType":5126,"count":4,"max":[0.28125,0.0625,0.15625],"min":[0.21875,0,0.09375],"type":"VEC3"},{"bufferView":33,"componentType":5126,"count":4,"max":[0.7071067690849304,0.7071067690849304,0],"min":[0.7071067690849304,0.7071067690849304,0],"type":"VEC3"},{"bufferView":34,"componentType":5126,"count":4,"max":[0.015625,0.015625],"min":[0,0],"type":"VEC2"},{"bufferView":35,"componentType":5123,"count":6,"max":[3],"min":[0],"type":"SCALAR"},{"bufferView":36,"componentType":5126,"count":4,"max":[0.28125,0,0.03125],"min":[0.21875,0,-0.03125],"type":"VEC3"},{"bufferView":37,"componentType":5126,"count":4,"max":[0,1,0],"min":[0,1,0],"type":"VEC3"},{"bufferView":38,"componentType":5126,"count":4,"max":[0.015625,0.015625],"min":[0,0],"type":"VEC2"},{"bufferView":39,"componentType":5123,"count":6,"max":[3],"min":[0],"type":"SCALAR"},{"bufferView":40,"componentType":5126,"count":4,"max":[0.28125,0.0625,-0.09375],"min":[0.21875,0,-0.15625],"type":"VEC3"},{"bufferView":41,"componentType":5126,"count":4,"max":[0.7071067690849304,0.7071067690849304,0],"min":[0.7071067690849304,0.7071067690849304,0],"type":"VEC3"},{"bufferView":42,"componentType":5126,"count":4,"max":[0.015625,0.015625],"min":[0,0],"type":"VEC2"},{"bufferView":43,"componentType":5123,"count":6,"max":[3],"min":[0],"type":"SCALAR"},{"bufferView":44,"componentType":5126,"count":4,"max":[0.15625,0.125,-0.09375],"min":[0.09375,0,-0.15625],"type":"VEC3"},{"bufferView":45,"componentType":5126,"count":4,"max":[0,0.4472135901451111,0.8944271802902222],"min":[0,0.4472135901451111,0.8944271802902222],"type":"VEC3"},{"bufferView":46,"componentType":5126,"count":4,"max":[0.015625,0.015625],"min":[0,0],"type":"VEC2"},{"bufferView":47,"componentType":5123,"count":6,"max":[3],"min":[0],"type":"SCALAR"},{"bufferView":48,"componentType":5126,"count":4,"max":[0.03125,0,-0.09375],"min":[-0.03125,0,-0.15625],"type":"VEC3"},{"bufferView":49,"componentType":5126,"count":4,"max":[0,1,0],"min":[0,1,0],"type":"VEC3"},{"bufferView":50,"componentType":5126,"count":4,"max":[0.015625,0.015625],"min":[0,0],"type":"VEC2"},{"bufferView":51,"componentType":5123,"count":6,"max":[3],"min":[0],"type":"SCALAR"},{"bufferView":52,"componentType":5126,"count":4,"max":[-0.09375,0,-0.09375],"min":[-0.15625,0,-0.15625],"type":"VEC3"},{"bufferView":53,"componentType":5126,"count":4,"max":[0,1,0],"min":[0,1,0],"type":"VEC3"},{"bufferView":54,"componentType":5126,"count":4,"max":[0.015625,0.015625],"min":[0,0],"type":"VEC2"},{"bufferView":55,"componentType":5123,"count":6,"max":[3],"min":[0],"type":"SCALAR"},{"bufferView":56,"componentType":5126,"count":4,"max":[-0.21875,0,-0.09375],"min":[-0.28125,0,-0.15625],"type":"VEC3"},{"bufferView":57,"componentType":5126,"count":4,"max":[0,1,0],"min":[0,1,0],"type":"VEC3"},{"bufferView":58,"componentType":5126,"count":4,"max":[0.015625,0.015625],"min":[0,0],"type":"VEC2"},{"bufferView":59,"componentType":5123,"count":6,"max":[3],"min":[0],"type":"SCALAR"},{"bufferView":60,"componentType":5126,"count":4,"max":[-0.21875,0,-0.09375],"min":[-0.28125,0,-0.15625],"type":"VEC3"},{"bufferView":61,"componentType":5126,"count":4,"max":[0,1,0],"min":[0,1,0],"type":"VEC3"},{"bufferView":62,"componentType":5126,"count":4,"max":[0.015625,0.015625],"min":[0,0],"type":"VEC2"},{"bufferView":63,"componentType":5123,"count":6,"max":[3],"min":[0],"type":"SCALAR"},{"bufferView":64,"componentType":5126,"count":20,"max":[0.40625,0.125,0.15625],"min":[0.34375,0,0.09375],"type":"VEC3"},{"bufferView":65,"componentType":5126,"count":20,"max":[1,1,1],"min":[0,-1,-1],"type":"VEC3"},{"bufferView":66,"componentType":5126,"count":20,"max":[0.015625,0.015625],"min":[0,0],"type":"VEC2"},{"bufferView":67,"componentType":5123,"count":30,"max":[19],"min":[0],"type":"SCALAR"},{"bufferView":68,"componentType":5126,"count":16,"max":[0.53125,0.125,0.15625],"min":[0.46875,0,0.09375],"type":"VEC3"},{"bufferView":69,"componentType":5126,"count":16,"max":[1,1,0],"min":[-1,-1,0],"type":"VEC3"},{"bufferView":70,"componentType":5126,"count":16,"max":[0.03125,0.015625],"min":[0,0],"type":"VEC2"},{"bufferView":71,"componentType":5123,"count":24,"max":[15],"min":[0],"type":"SCALAR"},{"bufferView":72,"componentType":5126,"count":16,"max":[0.40625,0.125,0.03125],"min":[0.34375,0,-0.03125],"type":"VEC3"},{"bufferView":73,"componentType":5126,"count":16,"max":[1,1,1],"min":[0,-1,0],"type":"VEC3"},{"bufferView":74,"componentType":5126,"count":16,"max":[0.015625,0.015625],"min":[0,0],"type":"VEC2"},{"bufferView":75,"componentType":5123,"count":24,"max":[15],"min":[0],"type":"SCALAR"},{"bufferView":76,"componentType":5126,"count":12,"max":[0.53125,0.125,0.03125],"min":[0.46875,0,-0.03125],"type":"VEC3"},{"bufferView":77,"componentType":5126,"count":12,"max":[1,1,0],"min":[0,-1,0],"type":"VEC3"},{"bufferView":78,"componentType":5126,"count":12,"max":[0.015625,0.015625],"min":[0,0],"type":"VEC2"},{"bufferView":79,"componentType":5123,"count":18,"max":[11],"min":[0],"type":"SCALAR"}],"materials":[{"pbrMetallicRoughness":{"metallicFactor":0,"roughnessFactor":1},"alphaMode":"MASK","alphaCutoff":0.05,"doubleSided":true}],"meshes":[{"primitives":[{"mode":4,"attributes":{"POSITION":0,"NORMAL":1,"TEXCOORD_0":2},"indices":3,"material":0}]},{"primitives":[{"mode":4,"attributes":{"POSITION":4,"NORMAL":5,"TEXCOORD_0":6},"indices":7,"material":0}]},{"primitives":[{"mode":4,"attributes":{"POSITION":8,"NORMAL":9,"TEXCOORD_0":10},"indices":11,"material":0}]},{"primitives":[{"mode":4,"attributes":{"POSITION":12,"NORMAL":13,"TEXCOORD_0":14},"indices":15,"material":0}]},{"primitives":[{"mode":4,"attributes":{"POSITION":16,"NORMAL":17,"TEXCOORD_0":18},"indices":19,"material":0}]},{"primitives":[{"mode":4,"attributes":{"POSITION":20,"NORMAL":21,"TEXCOORD_0":22},"indices":23,"material":0}]},{"primitives":[{"mode":4,"attributes":{"POSITION":24,"NORMAL":25,"TEXCOORD_0":26},"indices":27,"material":0}]},{"primitives":[{"mode":4,"attributes":{"POSITION":28,"NORMAL":29,"TEXCOORD_0":30},"indices":31,"material":0}]},{"primitives":[{"mode":4,"attributes":{"POSITION":32,"NORMAL":33,"TEXCOORD_0":34},"indices":35,"material":0}]},{"primitives":[{"mode":4,"attributes":{"POSITION":36,"NORMAL":37,"TEXCOORD_0":38},"indices":39,"material":0}]},{"primitives":[{"mode":4,"attributes":{"POSITION":40,"NORMAL":41,"TEXCOORD_0":42},"indices":43,"material":0}]},{"primitives":[{"mode":4,"attributes":{"POSITION":44,"NORMAL":45,"TEXCOORD_0":46},"indices":47,"material":0}]},{"primitives":[{"mode":4,"attributes":{"POSITION":48,"NORMAL":49,"TEXCOORD_0":50},"indices":51,"material":0}]},{"primitives":[{"mode":4,"attributes":{"POSITION":52,"NORMAL":53,"TEXCOORD_0":54},"indices":55,"material":0}]},{"primitives":[{"mode":4,"attributes":{"POSITION":56,"NORMAL":57,"TEXCOORD_0":58},"indices":59,"material":0}]},{"primitives":[{"mode":4,"attributes":{"POSITION":60,"NORMAL":61,"TEXCOORD_0":62},"indices":63,"material":0}]},{"primitives":[{"mode":4,"attributes":{"POSITION":64,"NORMAL":65,"TEXCOORD_0":66},"indices":67,"material":0}]},{"primitives":[{"mode":4,"attributes":{"POSITION":68,"NORMAL":69,"TEXCOORD_0":70},"indices":71,"material":0}]},{"primitives":[{"mode":4,"attributes":{"POSITION":72,"NORMAL":73,"TEXCOORD_0":74},"indices":75,"material":0}]},{"primitives":[{"mode":4,"attributes":{"POSITION":76,"NORMAL":77,"TEXCOORD_0":78},"indices":79,"material":0}]}]}